# xmcd
#
# Track frame offsets: 
#        150
#        14175
#        30450
#        49350
#        72600
#        90225
#        110475
#        127875
#        144900
#        165750
#        194100
#        207525
#        224625
#
# Disc length: 3340 seconds
#
# Revision: 0
# Processed by: cddbd v1.5.2PL0 Copyright (c) Steve Scherf et al.
# Submitted via: ExactAudioCopy v1.3
#
DISCID=c40d0a0d
DTITLE=2-Bit Palomino - 2-Bit Palomino
DYEAR=2010
DGENRE=Country
TTITLE0=Today I am a Pirate
TTITLE1=Whistlestop Cafe
TTITLE2=Run Girl, Run
TTITLE3=Cowboys in Dallas
TTITLE4=Leavin' California
TTITLE5=Wings
TTITLE6=Two Bit Palomino
TTITLE7=Only Daughter
TTITLE8=Savannah
TTITLE9=Sherman's Chimneys
TTITLE10=Boots and Dust and Dirt
TTITLE11=When The Feeling's Gone
TTITLE12=The Buffalo Grass
EXTD=
EXTT0=
EXTT1=
EXTT2=
EXTT3=
EXTT4=
EXTT5=
EXTT6=
EXTT7=
EXTT8=
EXTT9=
EXTT10=
EXTT11=
EXTT12=
PLAYORDER=
